<svg width="121" height="25" viewBox="0 0 121 25" fill="none" xmlns="http://www.w3.org/2000/svg">
<path d="M0.464 24V1.664H15.664V5.984H5.328V10.56H14.192V14.848H5.328V19.68H15.664V24H0.464ZM19.1335 16.544V11.936H28.6375V16.544H19.1335Z" fill="#021526"/>
<path d="M38.404 24.384C36.7827 24.384 35.4173 24.128 34.308 23.616C33.1987 23.0827 32.2067 22.336 31.332 21.376L34.116 18.56C34.7133 19.2213 35.3747 19.744 36.1 20.128C36.8253 20.512 37.6467 20.704 38.564 20.704C39.5027 20.704 40.1533 20.5653 40.516 20.288C40.8787 19.9893 41.06 19.5947 41.06 19.104C41.06 18.3147 40.4947 17.8453 39.364 17.696L37.54 17.472C33.764 17.0027 31.876 15.2747 31.876 12.288C31.876 11.4773 32.0253 10.7413 32.324 10.08C32.644 9.39733 33.0813 8.82133 33.636 8.352C34.212 7.86133 34.8947 7.488 35.684 7.232C36.4947 6.95467 37.4013 6.816 38.404 6.816C39.2787 6.816 40.0467 6.88 40.708 7.008C41.3907 7.11467 41.988 7.28533 42.5 7.52C43.0333 7.73333 43.5133 8.01067 43.94 8.352C44.388 8.672 44.8253 9.03467 45.252 9.44L42.532 12.224C41.9987 11.6907 41.3907 11.2747 40.708 10.976C40.0467 10.656 39.364 10.496 38.66 10.496C37.8493 10.496 37.2733 10.624 36.932 10.88C36.5907 11.136 36.42 11.4773 36.42 11.904C36.42 12.352 36.5373 12.704 36.772 12.96C37.028 13.1947 37.4973 13.3653 38.18 13.472L40.068 13.728C43.7587 14.2187 45.604 15.904 45.604 18.784C45.604 19.5947 45.4333 20.3413 45.092 21.024C44.7507 21.7067 44.26 22.304 43.62 22.816C43.0013 23.3067 42.244 23.6907 41.348 23.968C40.4733 24.2453 39.492 24.384 38.404 24.384ZM48.833 0.32H53.569V10.048H53.761C54.0597 9.17333 54.5823 8.416 55.329 7.776C56.0757 7.136 57.1103 6.816 58.433 6.816C60.161 6.816 61.4623 7.392 62.337 8.544C63.233 9.696 63.681 11.3387 63.681 13.472V24H58.945V13.856C58.945 12.768 58.7743 11.968 58.433 11.456C58.0917 10.9227 57.4837 10.656 56.609 10.656C56.225 10.656 55.8517 10.7093 55.489 10.816C55.1263 10.9013 54.7957 11.0507 54.497 11.264C54.2197 11.4773 53.9957 11.744 53.825 12.064C53.6543 12.3627 53.569 12.7147 53.569 13.12V24H48.833V0.32ZM74.9035 24.384C73.6235 24.384 72.4822 24.1813 71.4795 23.776C70.4768 23.3493 69.6235 22.7627 68.9195 22.016C68.2368 21.248 67.7142 20.32 67.3515 19.232C67.0102 18.144 66.8395 16.928 66.8395 15.584C66.8395 14.2613 67.0102 13.0667 67.3515 12C67.6928 10.912 68.1942 9.984 68.8555 9.216C69.5382 8.448 70.3702 7.86133 71.3515 7.456C72.3328 7.02933 73.4528 6.816 74.7115 6.816C76.0982 6.816 77.2822 7.05067 78.2635 7.52C79.2662 7.98933 80.0768 8.61867 80.6955 9.408C81.3355 10.1973 81.7942 11.1147 82.0715 12.16C82.3702 13.184 82.5195 14.2613 82.5195 15.392V16.8H71.7355V17.056C71.7355 18.1653 72.0342 19.0507 72.6315 19.712C73.2288 20.352 74.1675 20.672 75.4475 20.672C76.4288 20.672 77.2288 20.48 77.8475 20.096C78.4662 19.6907 79.0422 19.2107 79.5755 18.656L81.9435 21.6C81.1968 22.4747 80.2155 23.1573 78.9995 23.648C77.8048 24.1387 76.4395 24.384 74.9035 24.384ZM74.8075 10.304C73.8475 10.304 73.0902 10.624 72.5355 11.264C72.0022 11.8827 71.7355 12.7147 71.7355 13.76V14.016H77.6235V13.728C77.6235 12.704 77.3888 11.8827 76.9195 11.264C76.4715 10.624 75.7675 10.304 74.8075 10.304ZM85.8643 0.32H90.6003V10.016H90.7603C90.9949 9.07733 91.5283 8.30933 92.3603 7.712C93.2136 7.11467 94.1843 6.816 95.2723 6.816C97.4056 6.816 99.0163 7.56267 100.104 9.056C101.192 10.5493 101.736 12.7253 101.736 15.584C101.736 18.4427 101.192 20.6293 100.104 22.144C99.0163 23.6373 97.4056 24.384 95.2723 24.384C94.7176 24.384 94.1949 24.2987 93.7043 24.128C93.2136 23.9787 92.7656 23.7653 92.3603 23.488C91.9763 23.1893 91.6456 22.848 91.3683 22.464C91.0909 22.0587 90.8883 21.632 90.7603 21.184H90.6003V24H85.8643V0.32ZM93.7043 20.544C94.6003 20.544 95.3363 20.2347 95.9123 19.616C96.5096 18.976 96.8083 18.1227 96.8083 17.056V14.144C96.8083 13.0773 96.5096 12.2347 95.9123 11.616C95.3363 10.976 94.6003 10.656 93.7043 10.656C92.8083 10.656 92.0616 10.88 91.4643 11.328C90.8883 11.7547 90.6003 12.352 90.6003 13.12V18.08C90.6003 18.848 90.8883 19.456 91.4643 19.904C92.0616 20.3307 92.8083 20.544 93.7043 20.544ZM117.749 24C116.896 24 116.181 23.7333 115.605 23.2C115.05 22.6667 114.698 21.952 114.549 21.056H114.357C114.101 22.144 113.536 22.976 112.661 23.552C111.786 24.1067 110.709 24.384 109.429 24.384C107.744 24.384 106.453 23.936 105.557 23.04C104.661 22.144 104.213 20.96 104.213 19.488C104.213 17.7173 104.853 16.4053 106.133 15.552C107.434 14.6773 109.194 14.24 111.413 14.24H114.069V13.184C114.069 12.3733 113.856 11.7333 113.429 11.264C113.002 10.7733 112.288 10.528 111.285 10.528C110.346 10.528 109.6 10.7307 109.045 11.136C108.49 11.5413 108.032 12 107.669 12.512L104.853 10.016C105.536 9.01333 106.389 8.23467 107.413 7.68C108.458 7.104 109.866 6.816 111.637 6.816C114.026 6.816 115.818 7.33867 117.013 8.384C118.208 9.42933 118.805 10.9547 118.805 12.96V20.32H120.373V24H117.749ZM111.189 21.088C111.978 21.088 112.65 20.9173 113.205 20.576C113.781 20.2347 114.069 19.68 114.069 18.912V16.928H111.765C109.909 16.928 108.981 17.5573 108.981 18.816V19.296C108.981 19.9147 109.173 20.3733 109.557 20.672C109.941 20.9493 110.485 21.088 111.189 21.088Z" fill="#0360D9"/>
</svg>
